<?xml version="1.0" standalone="no"?>
<!DOCTYPE svg PUBLIC "-//W3C//DTD SVG 20010904//EN"
 "http://www.w3.org/TR/2001/REC-SVG-20010904/DTD/svg10.dtd">
<svg version="1.0" xmlns="http://www.w3.org/2000/svg"
 width="260.000000pt" height="224.000000pt" viewBox="0 0 260.000000 224.000000"
 preserveAspectRatio="xMidYMid meet">
<metadata>
Created by potrace 1.16, written by Peter Selinger 2001-2019
</metadata>
<g transform="translate(0.000000,224.000000) scale(0.100000,-0.100000)"
fill="#000000" stroke="none">
<path d="M1250 1896 c-145 -42 -174 -77 -448 -552 -275 -476 -286 -507 -246
-659 40 -157 158 -263 329 -294 32 -6 145 -11 251 -11 165 0 201 3 255 20 72
23 98 41 128 91 59 97 -14 233 -133 246 -27 3 -96 -5 -182 -23 -157 -32 -304
-38 -368 -15 -57 20 -114 76 -127 124 -17 63 5 141 81 291 107 210 313 547
376 615 77 83 162 125 253 125 58 0 75 -5 134 -37 56 -32 68 -36 73 -22 9 23
-11 42 -85 77 -57 27 -79 32 -156 35 -53 1 -109 -3 -135 -11z"/>
<path d="M1442 1691 c-74 -25 -158 -86 -208 -150 -58 -74 -203 -330 -227 -400
-46 -136 11 -247 132 -259 108 -10 158 40 220 218 89 259 160 362 266 389 128
32 208 -50 437 -449 149 -260 185 -330 208 -409 27 -88 24 -172 -9 -246 -28
-63 -54 -91 -112 -120 -25 -13 -51 -30 -58 -39 -22 -27 15 -32 63 -9 121 59
212 196 223 334 9 119 -10 169 -167 434 -26 44 -100 172 -165 285 -146 254
-178 302 -229 344 -109 89 -253 119 -374 77z"/>
<path d="M1589 1137 c-44 -29 -79 -92 -79 -141 0 -60 30 -111 140 -236 159
-184 206 -285 180 -389 -20 -78 -74 -119 -191 -142 -85 -17 -758 -17 -843 -1
-120 24 -225 93 -269 176 -15 30 -21 63 -23 119 -2 44 -5 81 -8 84 -3 3 -13 0
-22 -8 -14 -11 -16 -28 -11 -102 4 -72 10 -99 36 -152 60 -122 170 -204 298
-225 76 -13 890 -13 966 0 261 42 407 303 310 553 -26 69 -193 355 -235 402
-73 82 -179 109 -249 62z"/>
</g>
</svg>
